/vscmnt/brussel_pixiu_data/_data_brussel/112/vsc11236/PredSimResults/SUBJ09mtu3D/worker5.mot
version=1
nRows=8
nColumns=50
inDegrees=yes
endheader
                time	         pelvis_tilt	         pelvis_list	     pelvis_rotation	           pelvis_tx	           pelvis_ty	           pelvis_tz	       hip_flexion_r	     hip_adduction_r	      hip_rotation_r	        knee_angle_r	       ankle_angle_r	         mtp_angle_r	       hip_flexion_l	     hip_adduction_l	      hip_rotation_l	        knee_angle_l	       ankle_angle_l	         mtp_angle_l	    lumbar_extension	      lumbar_bending	     lumbar_rotation	 ercspn_r/activation	 intobl_r/activation	 extobl_r/activation	    abd_r/activation	    add_r/activation	hamstrings_r/activation	bifemsh_r/activation	glut_max_r/activation	iliopsoas_r/activation	rect_fem_r/activation	  vasti_r/activation	gastroc_r/activation	 soleus_r/activation	tib_ant_r/activation	 ercspn_l/activation	 intobl_l/activation	 extobl_l/activation	    abd_l/activation	    add_l/activation	hamstrings_l/activation	bifemsh_l/activation	glut_max_l/activation	iliopsoas_l/activation	rect_fem_l/activation	  vasti_l/activation	gastroc_l/activation	 soleus_l/activation	tib_ant_l/activation	
          0.59455632	         -4.01079870	          2.36669223	         -8.58773743	          0.73724984	          0.99378426	         -0.00270904	        -12.14221308	         -3.69429782	          5.62260648	         -9.89368659	          8.50367588	         30.09771603	         24.87377743	          0.61541029	         -1.33534142	          1.13066154	          5.94350973	          0.22345901	        -13.78746352	          0.94321991	          4.34834876	          0.01000023	          0.01000025	          0.01000006	          0.03459608	          0.01260883	          0.02443240	          0.14441362	          0.02958989	          0.22783105	          0.01000029	          0.01000063	          0.37211087	          0.24907782	          0.01198188	          0.01532932	          0.23788501	          0.09114156	          0.04769005	          0.05703095	          0.01000062	          0.24803117	          0.01000002	          0.12953325	          0.01721247	          0.01152782	          0.02805120	          0.01000004	          0.21622694	
          0.60644745	         -4.03037110	          2.36315214	         -8.48284208	          0.75552569	          0.99164927	         -0.00254625	        -12.53716726	         -3.70585431	          5.13428160	        -11.12415863	          7.84105547	         31.84197603	         24.49771648	          0.82354348	         -1.14405009	          0.26122060	          5.26285476	          0.23619904	        -13.38791290	          0.55064161	          4.21234243	          0.01000053	          0.01000006	          0.02642144	          0.02887373	          0.03802101	          0.02594720	          0.12052700	          0.02469560	          0.24513153	          0.01000019	          0.01000022	          0.34683354	          0.23203061	          0.01000003	          0.01279380	          0.22281043	          0.07606633	          0.04446533	          0.06638198	          0.02513943	          0.20700598	          0.04351125	          0.10810785	          0.01436546	          0.01000089	          0.02530718	          0.01419356	          0.21934170	
          0.61833857	         -4.03483529	          2.37394415	         -8.31915709	          0.77399702	          0.98976447	         -0.00239748	        -12.72958678	         -3.70199808	          4.59157822	        -12.76236498	          7.05457000	         33.61956237	         24.02657478	          1.04706283	         -0.96718861	         -0.68350387	          4.54079688	          0.21428333	        -12.98356976	          0.12093322	          4.05361672	          0.01000396	          0.01000010	          0.02211775	          0.02409789	          0.04082715	          0.03015723	          0.10059133	          0.02061084	          0.25222626	          0.01000018	          0.01198719	          0.31775411	          0.20671881	          0.01000000	          0.01067769	          0.19602400	          0.06348461	          0.09951614	          0.05767470	          0.05252669	          0.17276648	          0.06797035	          0.09022632	          0.01198935	          0.01000024	          0.02112127	          0.01184589	          0.29196831	
          0.63022970	         -4.02992972	          2.40463916	         -8.09832045	          0.79233281	          0.98842384	         -0.00226294	        -12.59042653	         -3.68410849	          4.00409053	        -14.97459824	          6.08814234	         35.37245793	         23.46091583	          1.29711833	         -0.79524063	         -1.42652120	          3.71370073	          0.18351941	        -12.60995421	         -0.35339279	          3.86897976	          0.03408153	          0.01000010	          0.01845962	          0.02011199	          0.04847073	          0.02772111	          0.08395313	          0.01720172	          0.25342248	          0.01000020	          0.01000456	          0.27327304	          0.17252658	          0.01000001	          0.01000021	          0.16360077	          0.05298397	          0.14963162	          0.06771891	          0.05903152	          0.14419018	          0.09949440	          0.07530247	          0.01000627	          0.01000073	          0.01762774	          0.01000008	          0.33257377	
          0.64212083	         -4.01789973	          2.45361420	         -7.82449177	          0.81027909	          0.98781955	         -0.00213658	        -12.03729486	         -3.65428577	          3.38354500	        -17.86186782	          4.93727738	         36.87340702	         22.85315555	          1.57080430	         -0.62809311	         -2.09046432	          3.02856306	          0.14962848	        -12.29440381	         -0.86987131	          3.65541728	          0.05082760	          0.01000007	          0.01540658	          0.01678537	          0.06135616	          0.02313602	          0.07006704	          0.01435648	          0.23931606	          0.01000007	          0.01000006	          0.22807243	          0.14398989	          0.01000006	          0.01000024	          0.13654048	          0.04422018	          0.18818447	          0.07892327	          0.06149804	          0.12034050	          0.11694770	          0.06284709	          0.01000003	          0.01000085	          0.01471206	          0.01000009	          0.35554711	
          0.65401195	         -3.99964853	          2.50815846	         -7.50046971	          0.82769813	          0.98801561	         -0.00200002	        -11.04998295	         -3.61129616	          2.73472130	        -21.43768552	          3.70308813	         37.62707210	         22.22069715	          1.84916618	         -0.47784162	         -2.70786758	          2.55242221	          0.12078183	        -12.05120942	         -1.41321477	          3.41034009	          0.07182791	          0.01000004	          0.01285880	          0.01400900	          0.06953251	          0.01930924	          0.05847811	          0.01198186	          0.21035534	          0.01000007	          0.01000002	          0.19034819	          0.12017330	          0.01000002	          0.01000037	          0.11395608	          0.03690596	          0.21087417	          0.07658028	          0.05700829	          0.10043567	          0.13340088	          0.05245189	          0.01000008	          0.01233591	          0.01227866	          0.01000020	          0.34488298	
          0.66590308	         -3.97576439	          2.55011200	         -7.12633753	          0.84453411	          0.98903268	         -0.00182641	         -9.65890793	         -3.55170357	          2.07406997	        -25.62221148	          2.39869572	         37.29237409	         21.55738531	          2.10971539	         -0.34105422	         -3.25838560	          2.26383311	          0.09939725	        -11.88568659	         -1.96198353	          3.13100966	          0.09041712	          0.01000003	          0.01913266	          0.01169185	          0.07886835	          0.01611543	          0.07255158	          0.01000002	          0.17556163	          0.01000005	          0.01000000	          0.15886372	          0.10029608	          0.01000003	          0.01000036	          0.09510724	          0.03080155	          0.21263112	          0.07450967	          0.05086772	          0.08382318	          0.14050751	          0.04377611	          0.01000011	          0.03710727	          0.01024779	          0.01072458	          0.32343535	
          0.67779420	         -3.94630101	          2.55965727	         -6.70024213	          0.86082538	          0.99079104	         -0.00158976	         -7.94959662	         -3.46401400	          1.43518853	        -30.19357545	          0.83180366	         35.98462787	         20.84336749	          2.33021878	         -0.20413772	         -3.70622983	          2.12463531	          0.08753748	        -11.79219629	         -2.49201571	          2.81610460	          0.08575739	          0.01000002	          0.04010390	          0.01000000	          0.08718892	          0.01344990	          0.09004470	          0.01000000	          0.14652294	          0.01000005	          0.01000000	          0.13258692	          0.08370664	          0.01000003	          0.01028504	          0.07937607	          0.02570684	          0.19723702	          0.06735345	          0.05017124	          0.06995848	          0.13519089	          0.03653534	          0.01000014	          0.04665289	          0.01000014	          0.01162072	          0.29752664	
